ffmpeg started on 2023-01-29 at 05:00:12
Report written to "D:/java/GitHub/pornMagnetSpringBoot/jiuse911Modeul/Logs/2023-01-29_04-59-33-931_ffreport.log"
Command line:
"D:\\java\\GitHub\\pornMagnetSpringBoot\\ffmpeg.exe" -loglevel warning -i "concat:00.ts|01.ts|02.ts|03.ts|04.ts|05.ts|06.ts|07.ts|08.ts|09.ts|10.ts|11.ts|12.ts|13.ts|14.ts|15.ts|16.ts|17.ts|18.ts|19.ts|20.ts|21.ts|22.ts|23.ts|24.ts|25.ts|26.ts|27.ts|28.ts|29.ts|" -map "0:v?" -map "0:a?" -map "0:s?" -metadata "date=2023-01-29T05:00:12.0888501+08:00" -metadata "encoding_tool=" -metadata "title=" -metadata "copyright=" -metadata "comment=" -metadata:s:a:0 "handler_name=" -metadata:s:a:0 "handler=" -c copy -y -bsf:a aac_adtstoasc "D:\\java\\GitHub\\pornMagnetSpringBoot\\Downloads\\\xcd\xb5\xcd\xb5\xc1\xef\xbd\xf8\xc5\xae\xc9\xfa\xcb\xde\xc9\xe1\xb8\xfa\xc5\xae\xd3\xd1\xd7\xf6\xb0\xae\xa3\xac\xb2\xbb\xd6\xaa\xb5\xc0\xcb\xfd\xca\xd2\xd3\xd1\xc3\xc7\xd3\xd0\xc3\xbb\xd3\xd0\xb7\xb4\xd3\xa6\xa3\xac\xbb\xb3\xc1\xb5\xcf\xc2\xd0\xa3\xd4\xb0\xca\xb1\xb9\xe2.mp4"
ffmpeg version N-94813-g85386c36e3-ffmpeg-for-N_m3u8DL-CLI Copyright (c) 2000-2019 the FFmpeg developers
  built with gcc 8.2.0 (GCC)
  libavutil      56. 35.100 / 56. 35.100
  libavcodec     58. 56.101 / 58. 56.101
  libavformat    58. 32.104 / 58. 32.104
  libavfilter     7. 58.102 /  7. 58.102
  libavresample   4.  0.  0 /  4.  0.  0
  libswresample   3.  6.100 /  3.  6.100
Input #0, mpegts, from 'concat:00.ts|01.ts|02.ts|03.ts|04.ts|05.ts|06.ts|07.ts|08.ts|09.ts|10.ts|11.ts|12.ts|13.ts|14.ts|15.ts|16.ts|17.ts|18.ts|19.ts|20.ts|21.ts|22.ts|23.ts|24.ts|25.ts|26.ts|27.ts|28.ts|29.ts|':
  Duration: 00:05:03.38, start: 1.456778, bitrate: 601 kb/s
  Program 1 
    Metadata:
      service_name    : Service01
      service_provider: FFmpeg
    Stream #0:0[0x100]: Video: h264 ([27][0][0][0] / 0x001B), yuv420p(progressive), 600x348 [SAR 899:900 DAR 31:18], 25 fps, 25 tbr, 90k tbn, 50 tbc
    Stream #0:1[0x101](und): Audio: aac ([15][0][0][0] / 0x000F), 44100 Hz, stereo, fltp, 4 kb/s
Output #0, mp4, to 'D:\java\GitHub\pornMagnetSpringBoot\Downloads\偷偷溜进女生宿舍跟女友做爱，不知道她室友们有没有反应，怀恋下校园时光.mp4':
  Metadata:
    date            : 2023-01-29T05:00:12.0888501+08:00
    encoder         : Lavf58.32.104
    Stream #0:0: Video: h264 (avc1 / 0x31637661), yuv420p(progressive), 600x348 [SAR 899:900 DAR 31:18], q=2-31, 25 fps, 25 tbr, 90k tbn, 90k tbc
    Stream #0:1(und): Audio: aac (mp4a / 0x6134706D), 44100 Hz, stereo, fltp, 4 kb/s
Stream mapping:
  Stream #0:0 -> #0:0 (copy)
  Stream #0:1 -> #0:1 (copy)
Press [q] to stop, [?] for help
frame= 7584 fps=0.0 q=-1.0 Lsize=   20876kB time=00:05:03.36 bitrate= 563.7kbits/s speed=3.22e+03x    
video:16099kB audio:4556kB subtitle:0kB other streams:0kB global headers:0kB muxing overhead: 1.070527%
